<mxfile host="app.diagrams.net" modified="2023-01-16T13:53:17.080Z" agent="5.0 (Macintosh; Intel Mac OS X 10_15_7) AppleWebKit/537.36 (KHTML, like Gecko) Chrome/108.0.0.0 Safari/537.36 Edg/108.0.1462.76" etag="qhSxEY37VpR3jRxchTGs" version="20.2.6" type="github" pages="3">
  <diagram id="3Ydw4ASegOwNY3ML6JZj" name="Page-1">
    <mxGraphModel dx="3289" dy="1854" grid="1" gridSize="10" guides="1" tooltips="1" connect="1" arrows="1" fold="1" page="1" pageScale="1" pageWidth="583" pageHeight="827" background="#F1FAEE" math="1" shadow="0">
      <root>
        <mxCell id="0" />
        <mxCell id="1" parent="0" />
        <mxCell id="6S5J2qrGkt7iMIxrHRfd-60" value="" style="edgeStyle=orthogonalEdgeStyle;rounded=1;sketch=0;orthogonalLoop=1;jettySize=auto;html=1;fontColor=#1D3557;strokeColor=#457B9D;fillColor=#A8DADC;" parent="1" source="RkMPYbq5EaX5Mh_NCJsp-1" target="6S5J2qrGkt7iMIxrHRfd-59" edge="1">
          <mxGeometry relative="1" as="geometry" />
        </mxCell>
        <mxCell id="RkMPYbq5EaX5Mh_NCJsp-1" value="" style="rounded=0;whiteSpace=wrap;html=1;fillColor=#A8DADC;strokeColor=#457B9D;fontColor=#1D3557;" parent="1" vertex="1">
          <mxGeometry x="550" y="120" width="120" height="60" as="geometry" />
        </mxCell>
        <mxCell id="RkMPYbq5EaX5Mh_NCJsp-2" value="" style="strokeWidth=2;html=1;shape=mxgraph.flowchart.document2;whiteSpace=wrap;size=0.25;fillColor=#A8DADC;strokeColor=#457B9D;fontColor=#1D3557;" parent="1" vertex="1">
          <mxGeometry x="290" y="120" width="100" height="60" as="geometry" />
        </mxCell>
        <mxCell id="RkMPYbq5EaX5Mh_NCJsp-6" style="edgeStyle=orthogonalEdgeStyle;rounded=0;orthogonalLoop=1;jettySize=auto;html=1;entryX=0;entryY=0.5;entryDx=0;entryDy=0;labelBackgroundColor=#F1FAEE;strokeColor=#457B9D;fontColor=#1D3557;" parent="1" source="RkMPYbq5EaX5Mh_NCJsp-3" target="RkMPYbq5EaX5Mh_NCJsp-10" edge="1">
          <mxGeometry relative="1" as="geometry">
            <mxPoint x="250" y="430" as="targetPoint" />
          </mxGeometry>
        </mxCell>
        <mxCell id="RkMPYbq5EaX5Mh_NCJsp-3" value="Actor" style="shape=umlActor;verticalLabelPosition=bottom;verticalAlign=top;html=1;outlineConnect=0;fillColor=#A8DADC;strokeColor=#457B9D;fontColor=#1D3557;" parent="1" vertex="1">
          <mxGeometry x="50" y="400" width="30" height="60" as="geometry" />
        </mxCell>
        <mxCell id="RkMPYbq5EaX5Mh_NCJsp-8" value="https://es-open.amap.com/docs/dev-docs" style="text;html=1;strokeColor=none;fillColor=none;align=center;verticalAlign=middle;whiteSpace=wrap;rounded=0;fontColor=#1D3557;" parent="1" vertex="1">
          <mxGeometry x="80" y="400" width="260" height="20" as="geometry" />
        </mxCell>
        <mxCell id="RkMPYbq5EaX5Mh_NCJsp-10" value="文档中心" style="rounded=1;whiteSpace=wrap;html=1;fillColor=#A8DADC;strokeColor=#457B9D;fontColor=#1D3557;" parent="1" vertex="1">
          <mxGeometry x="350" y="410" width="100" height="40" as="geometry" />
        </mxCell>
        <mxCell id="RkMPYbq5EaX5Mh_NCJsp-11" value="MIS服务" style="rounded=1;whiteSpace=wrap;html=1;fillColor=#A8DADC;strokeColor=#457B9D;fontColor=#1D3557;" parent="1" vertex="1">
          <mxGeometry x="40" y="210" width="80" height="40" as="geometry" />
        </mxCell>
        <mxCell id="f4gCvJrhTN-buIuB8fr0-2" value="" style="rhombus;whiteSpace=wrap;html=1;strokeWidth=2;fillWeight=-1;hachureGap=8;fillStyle=hachure;fillColor=#A8DADC;sketch=1;strokeColor=#457B9D;fontColor=#1D3557;" parent="1" vertex="1">
          <mxGeometry x="230" y="270" width="120" height="60" as="geometry" />
        </mxCell>
        <mxCell id="f4gCvJrhTN-buIuB8fr0-3" value="" style="html=1;points=[];perimeter=orthogonalPerimeter;fillColor=#A8DADC;strokeColor=#457B9D;fontColor=#1D3557;" parent="1" vertex="1">
          <mxGeometry x="185" y="550" width="10" height="40" as="geometry" />
        </mxCell>
        <mxCell id="f4gCvJrhTN-buIuB8fr0-4" value="self call" style="edgeStyle=orthogonalEdgeStyle;html=1;align=left;spacingLeft=2;endArrow=block;rounded=0;entryX=1;entryY=0;labelBackgroundColor=#F1FAEE;strokeColor=#457B9D;fontColor=#1D3557;" parent="1" target="f4gCvJrhTN-buIuB8fr0-3" edge="1">
          <mxGeometry relative="1" as="geometry">
            <mxPoint x="190" y="530" as="sourcePoint" />
            <Array as="points">
              <mxPoint x="220" y="530" />
            </Array>
          </mxGeometry>
        </mxCell>
        <mxCell id="6S5J2qrGkt7iMIxrHRfd-1" value="Table" style="shape=table;startSize=30;container=1;collapsible=0;childLayout=tableLayout;fixedRows=1;rowLines=0;fontStyle=1;fillColor=#A8DADC;strokeColor=#457B9D;fontColor=#1D3557;" parent="1" vertex="1">
          <mxGeometry x="620" y="300" width="180" height="110" as="geometry" />
        </mxCell>
        <mxCell id="6S5J2qrGkt7iMIxrHRfd-2" value="" style="shape=tableRow;horizontal=0;startSize=0;swimlaneHead=0;swimlaneBody=0;top=0;left=0;bottom=0;right=0;collapsible=0;dropTarget=0;fillColor=none;points=[[0,0.5],[1,0.5]];portConstraint=eastwest;strokeColor=#457B9D;fontColor=#1D3557;" parent="6S5J2qrGkt7iMIxrHRfd-1" vertex="1">
          <mxGeometry y="30" width="180" height="20" as="geometry" />
        </mxCell>
        <mxCell id="6S5J2qrGkt7iMIxrHRfd-3" value="1" style="shape=partialRectangle;html=1;whiteSpace=wrap;connectable=0;fillColor=none;top=0;left=0;bottom=0;right=0;overflow=hidden;pointerEvents=1;strokeColor=#457B9D;fontColor=#1D3557;" parent="6S5J2qrGkt7iMIxrHRfd-2" vertex="1">
          <mxGeometry width="40" height="20" as="geometry">
            <mxRectangle width="40" height="20" as="alternateBounds" />
          </mxGeometry>
        </mxCell>
        <mxCell id="6S5J2qrGkt7iMIxrHRfd-4" value="Value 1" style="shape=partialRectangle;html=1;whiteSpace=wrap;connectable=0;fillColor=none;top=0;left=0;bottom=0;right=0;align=left;spacingLeft=6;overflow=hidden;strokeColor=#457B9D;fontColor=#1D3557;" parent="6S5J2qrGkt7iMIxrHRfd-2" vertex="1">
          <mxGeometry x="40" width="140" height="20" as="geometry">
            <mxRectangle width="140" height="20" as="alternateBounds" />
          </mxGeometry>
        </mxCell>
        <mxCell id="6S5J2qrGkt7iMIxrHRfd-5" value="" style="shape=tableRow;horizontal=0;startSize=0;swimlaneHead=0;swimlaneBody=0;top=0;left=0;bottom=0;right=0;collapsible=0;dropTarget=0;fillColor=none;points=[[0,0.5],[1,0.5]];portConstraint=eastwest;strokeColor=#457B9D;fontColor=#1D3557;" parent="6S5J2qrGkt7iMIxrHRfd-1" vertex="1">
          <mxGeometry y="50" width="180" height="30" as="geometry" />
        </mxCell>
        <mxCell id="6S5J2qrGkt7iMIxrHRfd-6" value="2" style="shape=partialRectangle;html=1;whiteSpace=wrap;connectable=0;fillColor=none;top=0;left=0;bottom=0;right=0;overflow=hidden;strokeColor=#457B9D;fontColor=#1D3557;" parent="6S5J2qrGkt7iMIxrHRfd-5" vertex="1">
          <mxGeometry width="40" height="30" as="geometry">
            <mxRectangle width="40" height="30" as="alternateBounds" />
          </mxGeometry>
        </mxCell>
        <mxCell id="6S5J2qrGkt7iMIxrHRfd-7" value="Value 2" style="shape=partialRectangle;html=1;whiteSpace=wrap;connectable=0;fillColor=none;top=0;left=0;bottom=0;right=0;align=left;spacingLeft=6;overflow=hidden;strokeColor=#457B9D;fontColor=#1D3557;" parent="6S5J2qrGkt7iMIxrHRfd-5" vertex="1">
          <mxGeometry x="40" width="140" height="30" as="geometry">
            <mxRectangle width="140" height="30" as="alternateBounds" />
          </mxGeometry>
        </mxCell>
        <mxCell id="6S5J2qrGkt7iMIxrHRfd-8" value="" style="shape=tableRow;horizontal=0;startSize=0;swimlaneHead=0;swimlaneBody=0;top=0;left=0;bottom=0;right=0;collapsible=0;dropTarget=0;fillColor=none;points=[[0,0.5],[1,0.5]];portConstraint=eastwest;strokeColor=#457B9D;fontColor=#1D3557;" parent="6S5J2qrGkt7iMIxrHRfd-1" vertex="1">
          <mxGeometry y="80" width="180" height="30" as="geometry" />
        </mxCell>
        <mxCell id="6S5J2qrGkt7iMIxrHRfd-9" value="3" style="shape=partialRectangle;html=1;whiteSpace=wrap;connectable=0;fillColor=none;top=0;left=0;bottom=0;right=0;overflow=hidden;strokeColor=#457B9D;fontColor=#1D3557;" parent="6S5J2qrGkt7iMIxrHRfd-8" vertex="1">
          <mxGeometry width="40" height="30" as="geometry">
            <mxRectangle width="40" height="30" as="alternateBounds" />
          </mxGeometry>
        </mxCell>
        <mxCell id="6S5J2qrGkt7iMIxrHRfd-10" value="Value 3" style="shape=partialRectangle;html=1;whiteSpace=wrap;connectable=0;fillColor=none;top=0;left=0;bottom=0;right=0;align=left;spacingLeft=6;overflow=hidden;strokeColor=#457B9D;fontColor=#1D3557;" parent="6S5J2qrGkt7iMIxrHRfd-8" vertex="1">
          <mxGeometry x="40" width="140" height="30" as="geometry">
            <mxRectangle width="140" height="30" as="alternateBounds" />
          </mxGeometry>
        </mxCell>
        <mxCell id="6S5J2qrGkt7iMIxrHRfd-11" value="List" style="swimlane;fontStyle=0;childLayout=stackLayout;horizontal=1;startSize=26;fillColor=none;horizontalStack=0;resizeParent=1;resizeParentMax=0;resizeLast=0;collapsible=1;marginBottom=0;strokeColor=#457B9D;fontColor=#1D3557;" parent="1" vertex="1">
          <mxGeometry x="735" y="77" width="140" height="78" as="geometry">
            <mxRectangle x="735" y="77" width="50" height="26" as="alternateBounds" />
          </mxGeometry>
        </mxCell>
        <mxCell id="6S5J2qrGkt7iMIxrHRfd-12" value="Item 1" style="text;strokeColor=none;fillColor=none;align=left;verticalAlign=top;spacingLeft=4;spacingRight=4;overflow=hidden;rotatable=0;points=[[0,0.5],[1,0.5]];portConstraint=eastwest;fontColor=#1D3557;" parent="6S5J2qrGkt7iMIxrHRfd-11" vertex="1">
          <mxGeometry y="26" width="140" height="26" as="geometry" />
        </mxCell>
        <mxCell id="6S5J2qrGkt7iMIxrHRfd-14" value="Item 3" style="text;strokeColor=none;fillColor=none;align=left;verticalAlign=top;spacingLeft=4;spacingRight=4;overflow=hidden;rotatable=0;points=[[0,0.5],[1,0.5]];portConstraint=eastwest;fontColor=#1D3557;" parent="6S5J2qrGkt7iMIxrHRfd-11" vertex="1">
          <mxGeometry y="52" width="140" height="26" as="geometry" />
        </mxCell>
        <mxCell id="6S5J2qrGkt7iMIxrHRfd-41" value="" style="edgeStyle=orthogonalEdgeStyle;curved=0;rounded=1;sketch=0;orthogonalLoop=1;jettySize=auto;html=1;fontColor=#1D3557;strokeColor=#457B9D;fillColor=#A8DADC;" parent="1" source="6S5J2qrGkt7iMIxrHRfd-15" target="6S5J2qrGkt7iMIxrHRfd-40" edge="1">
          <mxGeometry relative="1" as="geometry" />
        </mxCell>
        <mxCell id="6S5J2qrGkt7iMIxrHRfd-15" value="Vertical Tree Layout" style="swimlane;startSize=20;horizontal=1;childLayout=treeLayout;horizontalTree=0;resizable=0;containerType=tree;fillColor=#A8DADC;strokeColor=#457B9D;fontColor=#1D3557;" parent="1" vertex="1">
          <mxGeometry x="980" y="360" width="280" height="190" as="geometry" />
        </mxCell>
        <mxCell id="6S5J2qrGkt7iMIxrHRfd-16" value="Root" style="whiteSpace=wrap;html=1;fillColor=#A8DADC;strokeColor=#457B9D;fontColor=#1D3557;" parent="6S5J2qrGkt7iMIxrHRfd-15" vertex="1">
          <mxGeometry x="90" y="40" width="100" height="40" as="geometry" />
        </mxCell>
        <mxCell id="6S5J2qrGkt7iMIxrHRfd-17" value="Child 1" style="whiteSpace=wrap;html=1;fillColor=#A8DADC;strokeColor=#457B9D;fontColor=#1D3557;" parent="6S5J2qrGkt7iMIxrHRfd-15" vertex="1">
          <mxGeometry x="20" y="130" width="100" height="40" as="geometry" />
        </mxCell>
        <mxCell id="6S5J2qrGkt7iMIxrHRfd-18" value="" style="edgeStyle=elbowEdgeStyle;elbow=vertical;html=1;rounded=0;labelBackgroundColor=#F1FAEE;strokeColor=#457B9D;fontColor=#1D3557;" parent="6S5J2qrGkt7iMIxrHRfd-15" source="6S5J2qrGkt7iMIxrHRfd-16" target="6S5J2qrGkt7iMIxrHRfd-17" edge="1">
          <mxGeometry relative="1" as="geometry" />
        </mxCell>
        <mxCell id="6S5J2qrGkt7iMIxrHRfd-19" value="Child 2" style="whiteSpace=wrap;html=1;fillColor=#A8DADC;strokeColor=#457B9D;fontColor=#1D3557;" parent="6S5J2qrGkt7iMIxrHRfd-15" vertex="1">
          <mxGeometry x="160" y="130" width="100" height="40" as="geometry" />
        </mxCell>
        <mxCell id="6S5J2qrGkt7iMIxrHRfd-20" value="" style="edgeStyle=elbowEdgeStyle;elbow=vertical;html=1;rounded=0;labelBackgroundColor=#F1FAEE;strokeColor=#457B9D;fontColor=#1D3557;" parent="6S5J2qrGkt7iMIxrHRfd-15" source="6S5J2qrGkt7iMIxrHRfd-16" target="6S5J2qrGkt7iMIxrHRfd-19" edge="1">
          <mxGeometry relative="1" as="geometry" />
        </mxCell>
        <mxCell id="6S5J2qrGkt7iMIxrHRfd-23" style="edgeStyle=orthogonalEdgeStyle;rounded=0;orthogonalLoop=1;jettySize=auto;html=1;entryX=0.5;entryY=1;entryDx=0;entryDy=0;labelBackgroundColor=#F1FAEE;strokeColor=#457B9D;fontColor=#1D3557;" parent="1" source="6S5J2qrGkt7iMIxrHRfd-21" target="6S5J2qrGkt7iMIxrHRfd-1" edge="1">
          <mxGeometry relative="1" as="geometry" />
        </mxCell>
        <mxCell id="6S5J2qrGkt7iMIxrHRfd-21" value="Entity" style="swimlane;childLayout=stackLayout;horizontal=1;startSize=30;horizontalStack=0;rounded=1;fontSize=14;fontStyle=0;strokeWidth=2;resizeParent=0;resizeLast=1;shadow=0;dashed=0;align=center;fillColor=#A8DADC;strokeColor=#457B9D;fontColor=#1D3557;" parent="1" vertex="1">
          <mxGeometry x="1230" y="860" width="160" height="120" as="geometry">
            <mxRectangle x="630" y="560" width="70" height="30" as="alternateBounds" />
          </mxGeometry>
        </mxCell>
        <mxCell id="6S5J2qrGkt7iMIxrHRfd-22" value="+Attribute1&#xa;+Attribute2&#xa;+Attribute3" style="align=left;strokeColor=none;fillColor=none;spacingLeft=4;fontSize=12;verticalAlign=top;resizable=0;rotatable=0;part=1;fontColor=#1D3557;" parent="6S5J2qrGkt7iMIxrHRfd-21" vertex="1">
          <mxGeometry y="30" width="160" height="90" as="geometry" />
        </mxCell>
        <mxCell id="6S5J2qrGkt7iMIxrHRfd-24" value="Classname" style="swimlane;fontStyle=1;align=center;verticalAlign=top;childLayout=stackLayout;horizontal=1;startSize=26;horizontalStack=0;resizeParent=1;resizeParentMax=0;resizeLast=0;collapsible=1;marginBottom=0;fillColor=#A8DADC;strokeColor=#457B9D;fontColor=#1D3557;" parent="1" vertex="1">
          <mxGeometry x="370" y="527" width="160" height="86" as="geometry" />
        </mxCell>
        <mxCell id="6S5J2qrGkt7iMIxrHRfd-25" value="+ field: type" style="text;strokeColor=none;fillColor=none;align=left;verticalAlign=top;spacingLeft=4;spacingRight=4;overflow=hidden;rotatable=0;points=[[0,0.5],[1,0.5]];portConstraint=eastwest;fontColor=#1D3557;" parent="6S5J2qrGkt7iMIxrHRfd-24" vertex="1">
          <mxGeometry y="26" width="160" height="26" as="geometry" />
        </mxCell>
        <mxCell id="6S5J2qrGkt7iMIxrHRfd-26" value="" style="line;strokeWidth=1;fillColor=none;align=left;verticalAlign=middle;spacingTop=-1;spacingLeft=3;spacingRight=3;rotatable=0;labelPosition=right;points=[];portConstraint=eastwest;labelBackgroundColor=#F1FAEE;strokeColor=#457B9D;fontColor=#1D3557;" parent="6S5J2qrGkt7iMIxrHRfd-24" vertex="1">
          <mxGeometry y="52" width="160" height="8" as="geometry" />
        </mxCell>
        <mxCell id="6S5J2qrGkt7iMIxrHRfd-27" value="+ method(type): type" style="text;strokeColor=none;fillColor=none;align=left;verticalAlign=top;spacingLeft=4;spacingRight=4;overflow=hidden;rotatable=0;points=[[0,0.5],[1,0.5]];portConstraint=eastwest;fontColor=#1D3557;" parent="6S5J2qrGkt7iMIxrHRfd-24" vertex="1">
          <mxGeometry y="60" width="160" height="26" as="geometry" />
        </mxCell>
        <mxCell id="6S5J2qrGkt7iMIxrHRfd-28" value="&amp;laquo;interface&amp;raquo;&lt;br&gt;&lt;b&gt;Name&lt;/b&gt;" style="html=1;fillColor=#A8DADC;strokeColor=#457B9D;fontColor=#1D3557;" parent="1" vertex="1">
          <mxGeometry x="220" y="595" width="110" height="50" as="geometry" />
        </mxCell>
        <mxCell id="6S5J2qrGkt7iMIxrHRfd-29" value="&lt;p style=&quot;margin:0px;margin-top:4px;text-align:center;&quot;&gt;&lt;i&gt;&amp;lt;&amp;lt;Interface&amp;gt;&amp;gt;&lt;/i&gt;&lt;br/&gt;&lt;b&gt;Interface&lt;/b&gt;&lt;/p&gt;&lt;hr size=&quot;1&quot;/&gt;&lt;p style=&quot;margin:0px;margin-left:4px;&quot;&gt;+ field1: Type&lt;br/&gt;+ field2: Type&lt;/p&gt;&lt;hr size=&quot;1&quot;/&gt;&lt;p style=&quot;margin:0px;margin-left:4px;&quot;&gt;+ method1(Type): Type&lt;br/&gt;+ method2(Type, Type): Type&lt;/p&gt;" style="verticalAlign=top;align=left;overflow=fill;fontSize=12;fontFamily=Helvetica;html=1;fillColor=#A8DADC;strokeColor=#457B9D;fontColor=#1D3557;" parent="1" vertex="1">
          <mxGeometry x="370" y="660" width="190" height="140" as="geometry" />
        </mxCell>
        <mxCell id="6S5J2qrGkt7iMIxrHRfd-30" value="Boundary Object" style="shape=umlBoundary;whiteSpace=wrap;html=1;fillColor=#A8DADC;strokeColor=#457B9D;fontColor=#1D3557;" parent="1" vertex="1">
          <mxGeometry x="225" y="690" width="100" height="80" as="geometry" />
        </mxCell>
        <mxCell id="6S5J2qrGkt7iMIxrHRfd-31" value="" style="shape=providedRequiredInterface;html=1;verticalLabelPosition=bottom;sketch=0;fillColor=#A8DADC;strokeColor=#457B9D;fontColor=#1D3557;" parent="1" vertex="1">
          <mxGeometry x="100" y="700" width="100" height="90" as="geometry" />
        </mxCell>
        <mxCell id="6S5J2qrGkt7iMIxrHRfd-32" value="" style="html=1;points=[];perimeter=orthogonalPerimeter;fillColor=#A8DADC;strokeColor=#457B9D;fontColor=#1D3557;" parent="1" vertex="1">
          <mxGeometry x="145" y="570" width="10" height="80" as="geometry" />
        </mxCell>
        <mxCell id="6S5J2qrGkt7iMIxrHRfd-33" value="dispatch" style="html=1;verticalAlign=bottom;endArrow=block;entryX=0;entryY=0;rounded=0;labelBackgroundColor=#F1FAEE;strokeColor=#457B9D;fontColor=#1D3557;" parent="1" target="6S5J2qrGkt7iMIxrHRfd-32" edge="1">
          <mxGeometry x="1" y="70" relative="1" as="geometry">
            <mxPoint x="-10" y="579" as="sourcePoint" />
            <mxPoint x="9" as="offset" />
          </mxGeometry>
        </mxCell>
        <mxCell id="6S5J2qrGkt7iMIxrHRfd-34" value="return" style="html=1;verticalAlign=bottom;endArrow=open;dashed=1;endSize=8;exitX=0;exitY=0.95;rounded=0;labelBackgroundColor=#F1FAEE;strokeColor=#457B9D;fontColor=#1D3557;" parent="1" source="6S5J2qrGkt7iMIxrHRfd-32" edge="1">
          <mxGeometry relative="1" as="geometry">
            <mxPoint x="-10" y="655" as="targetPoint" />
          </mxGeometry>
        </mxCell>
        <mxCell id="6S5J2qrGkt7iMIxrHRfd-35" value="" style="html=1;points=[];perimeter=orthogonalPerimeter;fillColor=#A8DADC;strokeColor=#457B9D;fontColor=#1D3557;" parent="1" vertex="1">
          <mxGeometry x="1520" y="980" width="60" height="80" as="geometry" />
        </mxCell>
        <mxCell id="6S5J2qrGkt7iMIxrHRfd-36" value="dispatch" style="html=1;verticalAlign=bottom;endArrow=block;entryX=0;entryY=0;rounded=0;exitX=0.75;exitY=1;exitDx=0;exitDy=0;labelBackgroundColor=#F1FAEE;strokeColor=#457B9D;fontColor=#1D3557;" parent="1" source="6S5J2qrGkt7iMIxrHRfd-22" target="6S5J2qrGkt7iMIxrHRfd-35" edge="1">
          <mxGeometry relative="1" as="geometry">
            <mxPoint x="1460" y="980" as="sourcePoint" />
          </mxGeometry>
        </mxCell>
        <mxCell id="6S5J2qrGkt7iMIxrHRfd-37" value="return" style="html=1;verticalAlign=bottom;endArrow=open;dashed=1;endSize=8;exitX=0;exitY=0.95;rounded=0;labelBackgroundColor=#F1FAEE;strokeColor=#457B9D;fontColor=#1D3557;" parent="1" source="6S5J2qrGkt7iMIxrHRfd-35" edge="1">
          <mxGeometry relative="1" as="geometry">
            <mxPoint x="1350" y="1056" as="targetPoint" />
          </mxGeometry>
        </mxCell>
        <mxCell id="6S5J2qrGkt7iMIxrHRfd-38" value="" style="shape=umlLifeline;participant=umlControl;perimeter=lifelinePerimeter;whiteSpace=wrap;html=1;container=1;collapsible=0;recursiveResize=0;verticalAlign=top;spacingTop=36;outlineConnect=0;fillColor=#A8DADC;strokeColor=#457B9D;fontColor=#1D3557;" parent="1" vertex="1">
          <mxGeometry x="560" y="420" width="30" height="190" as="geometry" />
        </mxCell>
        <mxCell id="6S5J2qrGkt7iMIxrHRfd-39" style="edgeStyle=orthogonalEdgeStyle;curved=0;rounded=1;sketch=0;orthogonalLoop=1;jettySize=auto;html=1;fontColor=#1D3557;strokeColor=#457B9D;fillColor=#A8DADC;" parent="1" source="6S5J2qrGkt7iMIxrHRfd-15" target="6S5J2qrGkt7iMIxrHRfd-15" edge="1">
          <mxGeometry relative="1" as="geometry" />
        </mxCell>
        <mxCell id="6S5J2qrGkt7iMIxrHRfd-13" value="Item 2" style="text;strokeColor=none;fillColor=none;align=left;verticalAlign=top;spacingLeft=4;spacingRight=4;overflow=hidden;rotatable=0;points=[[0,0.5],[1,0.5]];portConstraint=eastwest;fontColor=#1D3557;" parent="1" vertex="1">
          <mxGeometry x="700" y="200" width="140" height="26" as="geometry" />
        </mxCell>
        <mxCell id="6S5J2qrGkt7iMIxrHRfd-44" value="" style="shape=table;startSize=0;container=1;collapsible=0;childLayout=tableLayout;rounded=0;sketch=0;fontColor=#1D3557;strokeColor=#457B9D;fillColor=#A8DADC;" parent="1" vertex="1">
          <mxGeometry x="770" y="480" width="180" height="310" as="geometry" />
        </mxCell>
        <mxCell id="6S5J2qrGkt7iMIxrHRfd-45" value="" style="shape=tableRow;horizontal=0;startSize=0;swimlaneHead=0;swimlaneBody=0;top=0;left=0;bottom=0;right=0;collapsible=0;dropTarget=0;fillColor=none;points=[[0,0.5],[1,0.5]];portConstraint=eastwest;rounded=0;sketch=0;fontColor=#1D3557;strokeColor=#457B9D;" parent="6S5J2qrGkt7iMIxrHRfd-44" vertex="1">
          <mxGeometry width="180" height="230" as="geometry" />
        </mxCell>
        <mxCell id="6S5J2qrGkt7iMIxrHRfd-46" value="" style="shape=partialRectangle;html=1;whiteSpace=wrap;connectable=0;overflow=hidden;fillColor=none;top=0;left=0;bottom=0;right=0;pointerEvents=1;rounded=0;sketch=0;fontColor=#1D3557;strokeColor=#457B9D;" parent="6S5J2qrGkt7iMIxrHRfd-45" vertex="1">
          <mxGeometry width="60" height="230" as="geometry">
            <mxRectangle width="60" height="230" as="alternateBounds" />
          </mxGeometry>
        </mxCell>
        <mxCell id="6S5J2qrGkt7iMIxrHRfd-47" value="" style="shape=partialRectangle;html=1;whiteSpace=wrap;connectable=0;overflow=hidden;fillColor=none;top=0;left=0;bottom=0;right=0;pointerEvents=1;rounded=0;sketch=0;fontColor=#1D3557;strokeColor=#457B9D;" parent="6S5J2qrGkt7iMIxrHRfd-45" vertex="1">
          <mxGeometry x="60" width="60" height="230" as="geometry">
            <mxRectangle width="60" height="230" as="alternateBounds" />
          </mxGeometry>
        </mxCell>
        <mxCell id="6S5J2qrGkt7iMIxrHRfd-48" value="" style="shape=partialRectangle;html=1;whiteSpace=wrap;connectable=0;overflow=hidden;fillColor=none;top=0;left=0;bottom=0;right=0;pointerEvents=1;rounded=0;sketch=0;fontColor=#1D3557;strokeColor=#457B9D;" parent="6S5J2qrGkt7iMIxrHRfd-45" vertex="1">
          <mxGeometry x="120" width="60" height="230" as="geometry">
            <mxRectangle width="60" height="230" as="alternateBounds" />
          </mxGeometry>
        </mxCell>
        <mxCell id="6S5J2qrGkt7iMIxrHRfd-49" value="" style="shape=tableRow;horizontal=0;startSize=0;swimlaneHead=0;swimlaneBody=0;top=0;left=0;bottom=0;right=0;collapsible=0;dropTarget=0;fillColor=none;points=[[0,0.5],[1,0.5]];portConstraint=eastwest;rounded=0;sketch=0;fontColor=#1D3557;strokeColor=#457B9D;" parent="6S5J2qrGkt7iMIxrHRfd-44" vertex="1">
          <mxGeometry y="230" width="180" height="40" as="geometry" />
        </mxCell>
        <mxCell id="6S5J2qrGkt7iMIxrHRfd-50" value="" style="shape=partialRectangle;html=1;whiteSpace=wrap;connectable=0;overflow=hidden;fillColor=none;top=0;left=0;bottom=0;right=0;pointerEvents=1;rounded=0;sketch=0;fontColor=#1D3557;strokeColor=#457B9D;" parent="6S5J2qrGkt7iMIxrHRfd-49" vertex="1">
          <mxGeometry width="60" height="40" as="geometry">
            <mxRectangle width="60" height="40" as="alternateBounds" />
          </mxGeometry>
        </mxCell>
        <mxCell id="6S5J2qrGkt7iMIxrHRfd-51" value="" style="shape=partialRectangle;html=1;whiteSpace=wrap;connectable=0;overflow=hidden;fillColor=none;top=0;left=0;bottom=0;right=0;pointerEvents=1;rounded=0;sketch=0;fontColor=#1D3557;strokeColor=#457B9D;" parent="6S5J2qrGkt7iMIxrHRfd-49" vertex="1">
          <mxGeometry x="60" width="60" height="40" as="geometry">
            <mxRectangle width="60" height="40" as="alternateBounds" />
          </mxGeometry>
        </mxCell>
        <mxCell id="6S5J2qrGkt7iMIxrHRfd-52" value="" style="shape=partialRectangle;html=1;whiteSpace=wrap;connectable=0;overflow=hidden;fillColor=none;top=0;left=0;bottom=0;right=0;pointerEvents=1;rounded=0;sketch=0;fontColor=#1D3557;strokeColor=#457B9D;" parent="6S5J2qrGkt7iMIxrHRfd-49" vertex="1">
          <mxGeometry x="120" width="60" height="40" as="geometry">
            <mxRectangle width="60" height="40" as="alternateBounds" />
          </mxGeometry>
        </mxCell>
        <mxCell id="6S5J2qrGkt7iMIxrHRfd-53" value="" style="shape=tableRow;horizontal=0;startSize=0;swimlaneHead=0;swimlaneBody=0;top=0;left=0;bottom=0;right=0;collapsible=0;dropTarget=0;fillColor=none;points=[[0,0.5],[1,0.5]];portConstraint=eastwest;rounded=0;sketch=0;fontColor=#1D3557;strokeColor=#457B9D;" parent="6S5J2qrGkt7iMIxrHRfd-44" vertex="1">
          <mxGeometry y="270" width="180" height="40" as="geometry" />
        </mxCell>
        <mxCell id="6S5J2qrGkt7iMIxrHRfd-54" value="" style="shape=partialRectangle;html=1;whiteSpace=wrap;connectable=0;overflow=hidden;fillColor=none;top=0;left=0;bottom=0;right=0;pointerEvents=1;rounded=0;sketch=0;fontColor=#1D3557;strokeColor=#457B9D;" parent="6S5J2qrGkt7iMIxrHRfd-53" vertex="1">
          <mxGeometry width="60" height="40" as="geometry">
            <mxRectangle width="60" height="40" as="alternateBounds" />
          </mxGeometry>
        </mxCell>
        <mxCell id="6S5J2qrGkt7iMIxrHRfd-55" value="" style="shape=partialRectangle;html=1;whiteSpace=wrap;connectable=0;overflow=hidden;fillColor=none;top=0;left=0;bottom=0;right=0;pointerEvents=1;rounded=0;sketch=0;fontColor=#1D3557;strokeColor=#457B9D;" parent="6S5J2qrGkt7iMIxrHRfd-53" vertex="1">
          <mxGeometry x="60" width="60" height="40" as="geometry">
            <mxRectangle width="60" height="40" as="alternateBounds" />
          </mxGeometry>
        </mxCell>
        <mxCell id="6S5J2qrGkt7iMIxrHRfd-56" value="" style="shape=partialRectangle;html=1;whiteSpace=wrap;connectable=0;overflow=hidden;fillColor=none;top=0;left=0;bottom=0;right=0;pointerEvents=1;rounded=0;sketch=0;fontColor=#1D3557;strokeColor=#457B9D;" parent="6S5J2qrGkt7iMIxrHRfd-53" vertex="1">
          <mxGeometry x="120" width="60" height="40" as="geometry">
            <mxRectangle width="60" height="40" as="alternateBounds" />
          </mxGeometry>
        </mxCell>
        <mxCell id="6S5J2qrGkt7iMIxrHRfd-57" value="" style="group" parent="1" vertex="1" connectable="0">
          <mxGeometry x="1060" y="155" width="440" height="71" as="geometry" />
        </mxCell>
        <mxCell id="6S5J2qrGkt7iMIxrHRfd-40" value="" style="whiteSpace=wrap;html=1;fillColor=#A8DADC;strokeColor=#457B9D;fontColor=#1D3557;fontStyle=1;startSize=20;" parent="6S5J2qrGkt7iMIxrHRfd-57" vertex="1">
          <mxGeometry width="120" height="60" as="geometry" />
        </mxCell>
        <mxCell id="6S5J2qrGkt7iMIxrHRfd-42" value="" style="ellipse;whiteSpace=wrap;html=1;fillColor=#e1d5e7;strokeColor=#9673a6;fontStyle=1;startSize=20;" parent="6S5J2qrGkt7iMIxrHRfd-57" vertex="1">
          <mxGeometry x="320" y="11" width="120" height="60" as="geometry" />
        </mxCell>
        <mxCell id="6S5J2qrGkt7iMIxrHRfd-43" value="" style="edgeStyle=orthogonalEdgeStyle;sketch=0;orthogonalLoop=1;jettySize=auto;html=1;fontColor=#1D3557;strokeColor=#9673a6;fillColor=#e1d5e7;rounded=1;" parent="6S5J2qrGkt7iMIxrHRfd-57" source="6S5J2qrGkt7iMIxrHRfd-40" target="6S5J2qrGkt7iMIxrHRfd-42" edge="1">
          <mxGeometry relative="1" as="geometry" />
        </mxCell>
        <mxCell id="6S5J2qrGkt7iMIxrHRfd-58" style="edgeStyle=orthogonalEdgeStyle;rounded=1;sketch=0;orthogonalLoop=1;jettySize=auto;html=1;exitX=0.5;exitY=0;exitDx=0;exitDy=0;entryX=0.5;entryY=0;entryDx=0;entryDy=0;fontColor=#1D3557;strokeColor=#457B9D;fillColor=#A8DADC;" parent="1" source="6S5J2qrGkt7iMIxrHRfd-42" target="6S5J2qrGkt7iMIxrHRfd-11" edge="1">
          <mxGeometry relative="1" as="geometry">
            <Array as="points">
              <mxPoint x="1440" y="20" />
              <mxPoint x="805" y="20" />
            </Array>
          </mxGeometry>
        </mxCell>
        <mxCell id="6S5J2qrGkt7iMIxrHRfd-59" value="" style="whiteSpace=wrap;html=1;fillColor=#A8DADC;strokeColor=#457B9D;fontColor=#1D3557;rounded=0;" parent="1" vertex="1">
          <mxGeometry x="430" y="290" width="120" height="60" as="geometry" />
        </mxCell>
        <mxCell id="HjmBVttFezNBdROCvfXy-3" value="" style="edgeStyle=orthogonalEdgeStyle;rounded=0;orthogonalLoop=1;jettySize=auto;html=1;fontFamily=Helvetica;fontSize=12;fontColor=default;" parent="1" source="HjmBVttFezNBdROCvfXy-1" target="HjmBVttFezNBdROCvfXy-2" edge="1">
          <mxGeometry relative="1" as="geometry" />
        </mxCell>
        <mxCell id="HjmBVttFezNBdROCvfXy-1" value="·1钱·12·12" style="rounded=0;whiteSpace=wrap;html=1;" parent="1" vertex="1">
          <mxGeometry x="380" y="900" width="120" height="60" as="geometry" />
        </mxCell>
        <mxCell id="HjmBVttFezNBdROCvfXy-5" value="" style="edgeStyle=orthogonalEdgeStyle;rounded=0;orthogonalLoop=1;jettySize=auto;html=1;fontFamily=Helvetica;fontSize=12;fontColor=default;" parent="1" source="HjmBVttFezNBdROCvfXy-2" target="HjmBVttFezNBdROCvfXy-4" edge="1">
          <mxGeometry relative="1" as="geometry" />
        </mxCell>
        <mxCell id="HjmBVttFezNBdROCvfXy-2" value="·1钱·12·12" style="rounded=0;whiteSpace=wrap;html=1;" parent="1" vertex="1">
          <mxGeometry x="380" y="1040" width="120" height="60" as="geometry" />
        </mxCell>
        <mxCell id="HjmBVttFezNBdROCvfXy-7" value="" style="edgeStyle=orthogonalEdgeStyle;rounded=0;orthogonalLoop=1;jettySize=auto;html=1;fontFamily=Helvetica;fontSize=12;fontColor=default;" parent="1" source="HjmBVttFezNBdROCvfXy-4" target="HjmBVttFezNBdROCvfXy-6" edge="1">
          <mxGeometry relative="1" as="geometry" />
        </mxCell>
        <mxCell id="HjmBVttFezNBdROCvfXy-4" value="" style="whiteSpace=wrap;html=1;rounded=0;" parent="1" vertex="1">
          <mxGeometry x="580" y="1040" width="120" height="60" as="geometry" />
        </mxCell>
        <mxCell id="HjmBVttFezNBdROCvfXy-6" value="是打发打发的司法第三方 是打发是打发是打发" style="rhombus;whiteSpace=wrap;html=1;rounded=0;" parent="1" vertex="1">
          <mxGeometry x="600" y="1170" width="80" height="80" as="geometry" />
        </mxCell>
        <mxCell id="EtW9IwNaO_p6W7MFMOuh-2" value="Text" style="text;html=1;align=center;verticalAlign=middle;resizable=0;points=[];autosize=1;strokeColor=none;fillColor=none;fontSize=12;fontFamily=Helvetica;fontColor=default;" parent="1" vertex="1">
          <mxGeometry x="560" y="1640" width="40" height="20" as="geometry" />
        </mxCell>
      </root>
    </mxGraphModel>
  </diagram>
  <diagram id="-ndh8bdzdlOvJHZNGvvV" name="Page-2">
    <mxGraphModel dx="947" dy="649" grid="1" gridSize="10" guides="1" tooltips="1" connect="1" arrows="1" fold="1" page="1" pageScale="1" pageWidth="583" pageHeight="827" background="#F1FAEE" math="0" shadow="0">
      <root>
        <mxCell id="0" />
        <mxCell id="1" parent="0" />
        <mxCell id="QjljS_iD1KNvbzpuQe_f-1" value="Text" style="text;html=1;align=center;verticalAlign=middle;resizable=0;points=[];autosize=1;strokeColor=none;fillColor=none;fontSize=12;fontFamily=Helvetica;fontColor=default;" parent="1" vertex="1">
          <mxGeometry x="260" y="820" width="40" height="20" as="geometry" />
        </mxCell>
        <mxCell id="lFZHWTGC0itkNrb5Cqle-1" value="" style="rounded=1;whiteSpace=wrap;html=1;" parent="1" vertex="1">
          <mxGeometry x="60" y="170" width="120" height="60" as="geometry" />
        </mxCell>
        <mxCell id="lFZHWTGC0itkNrb5Cqle-2" value="" style="shape=process;whiteSpace=wrap;html=1;backgroundOutline=1;" parent="1" vertex="1">
          <mxGeometry x="60" y="270" width="120" height="60" as="geometry" />
        </mxCell>
        <mxCell id="2YbQ_GcQuSP5iBPFQ4sY-6" style="edgeStyle=orthogonalEdgeStyle;rounded=0;orthogonalLoop=1;jettySize=auto;html=1;entryX=0;entryY=0.5;entryDx=0;entryDy=0;" parent="1" source="2YbQ_GcQuSP5iBPFQ4sY-1" target="2YbQ_GcQuSP5iBPFQ4sY-5" edge="1">
          <mxGeometry relative="1" as="geometry" />
        </mxCell>
        <mxCell id="2YbQ_GcQuSP5iBPFQ4sY-1" value="a" style="whiteSpace=wrap;html=1;" parent="1" vertex="1">
          <mxGeometry x="270" y="120" width="120" height="60" as="geometry" />
        </mxCell>
        <mxCell id="2YbQ_GcQuSP5iBPFQ4sY-7" style="edgeStyle=orthogonalEdgeStyle;rounded=0;orthogonalLoop=1;jettySize=auto;html=1;exitX=1;exitY=0.5;exitDx=0;exitDy=0;" parent="1" source="2YbQ_GcQuSP5iBPFQ4sY-3" edge="1">
          <mxGeometry relative="1" as="geometry">
            <mxPoint x="460" y="239.76470588235293" as="targetPoint" />
          </mxGeometry>
        </mxCell>
        <mxCell id="2YbQ_GcQuSP5iBPFQ4sY-3" value="b" style="whiteSpace=wrap;html=1;" parent="1" vertex="1">
          <mxGeometry x="270" y="210" width="120" height="60" as="geometry" />
        </mxCell>
        <mxCell id="2YbQ_GcQuSP5iBPFQ4sY-8" style="edgeStyle=orthogonalEdgeStyle;rounded=0;orthogonalLoop=1;jettySize=auto;html=1;exitX=1;exitY=0.5;exitDx=0;exitDy=0;" parent="1" source="2YbQ_GcQuSP5iBPFQ4sY-4" edge="1">
          <mxGeometry relative="1" as="geometry">
            <mxPoint x="460" y="239.9999999999999" as="targetPoint" />
          </mxGeometry>
        </mxCell>
        <mxCell id="2YbQ_GcQuSP5iBPFQ4sY-4" value="c" style="whiteSpace=wrap;html=1;" parent="1" vertex="1">
          <mxGeometry x="270" y="300" width="120" height="60" as="geometry" />
        </mxCell>
        <mxCell id="2YbQ_GcQuSP5iBPFQ4sY-5" value="d" style="whiteSpace=wrap;html=1;" parent="1" vertex="1">
          <mxGeometry x="460" y="210" width="120" height="60" as="geometry" />
        </mxCell>
      </root>
    </mxGraphModel>
  </diagram>
  <diagram id="c7qnkdTjXTkFmqXlZ8RX" name="第 3 页">
    <mxGraphModel dx="1406" dy="1391" grid="1" gridSize="11" guides="1" tooltips="1" connect="1" arrows="1" fold="1" page="1" pageScale="1" pageWidth="583" pageHeight="827" background="#F1FAEE" math="0" shadow="0">
      <root>
        <mxCell id="0" />
        <mxCell id="1" parent="0" />
        <mxCell id="-O-D5mFjyxaTH4whwX1T-24" value="" style="rounded=1;whiteSpace=wrap;html=1;fontColor=#1D3557;strokeColor=#457B9D;fillColor=none;dashed=1;" parent="1" vertex="1">
          <mxGeometry x="-286" y="-693" width="396" height="308" as="geometry" />
        </mxCell>
        <mxCell id="-O-D5mFjyxaTH4whwX1T-17" style="rounded=0;orthogonalLoop=1;jettySize=auto;html=1;entryX=0;entryY=0.75;entryDx=0;entryDy=0;exitX=1;exitY=0.5;exitDx=0;exitDy=0;labelBackgroundColor=#F1FAEE;strokeColor=#457B9D;fontColor=#1D3557;" parent="1" source="-O-D5mFjyxaTH4whwX1T-1" target="-O-D5mFjyxaTH4whwX1T-2" edge="1">
          <mxGeometry relative="1" as="geometry">
            <mxPoint x="-297" y="-528" as="sourcePoint" />
          </mxGeometry>
        </mxCell>
        <mxCell id="-O-D5mFjyxaTH4whwX1T-18" style="edgeStyle=none;rounded=0;orthogonalLoop=1;jettySize=auto;html=1;exitX=1;exitY=0.5;exitDx=0;exitDy=0;entryX=0;entryY=0.5;entryDx=0;entryDy=0;labelBackgroundColor=#F1FAEE;strokeColor=#457B9D;fontColor=#1D3557;" parent="1" source="-O-D5mFjyxaTH4whwX1T-1" target="-O-D5mFjyxaTH4whwX1T-3" edge="1">
          <mxGeometry relative="1" as="geometry" />
        </mxCell>
        <mxCell id="-O-D5mFjyxaTH4whwX1T-19" style="edgeStyle=none;rounded=0;orthogonalLoop=1;jettySize=auto;html=1;exitX=1;exitY=0.5;exitDx=0;exitDy=0;labelBackgroundColor=#F1FAEE;strokeColor=#457B9D;fontColor=#1D3557;" parent="1" source="-O-D5mFjyxaTH4whwX1T-1" target="-O-D5mFjyxaTH4whwX1T-5" edge="1">
          <mxGeometry relative="1" as="geometry" />
        </mxCell>
        <mxCell id="-O-D5mFjyxaTH4whwX1T-20" style="edgeStyle=none;rounded=0;orthogonalLoop=1;jettySize=auto;html=1;exitX=1;exitY=0.5;exitDx=0;exitDy=0;entryX=0;entryY=0.5;entryDx=0;entryDy=0;labelBackgroundColor=#F1FAEE;strokeColor=#457B9D;fontColor=#1D3557;" parent="1" source="-O-D5mFjyxaTH4whwX1T-1" target="-O-D5mFjyxaTH4whwX1T-15" edge="1">
          <mxGeometry relative="1" as="geometry" />
        </mxCell>
        <mxCell id="-O-D5mFjyxaTH4whwX1T-1" value="点击下单" style="rounded=0;whiteSpace=wrap;html=1;strokeColor=#457B9D;fillColor=#A8DADC;fontColor=#1D3557;" parent="1" vertex="1">
          <mxGeometry x="-506" y="-528" width="88" height="33" as="geometry" />
        </mxCell>
        <mxCell id="-O-D5mFjyxaTH4whwX1T-2" value="点击返回" style="rounded=0;whiteSpace=wrap;html=1;strokeColor=#457B9D;fillColor=#A8DADC;fontColor=#1D3557;" parent="1" vertex="1">
          <mxGeometry x="-220" y="-627" width="88" height="33" as="geometry" />
        </mxCell>
        <mxCell id="-O-D5mFjyxaTH4whwX1T-22" style="rounded=0;orthogonalLoop=1;jettySize=auto;html=1;fontColor=#1D3557;strokeColor=#457B9D;fillColor=#A8DADC;" parent="1" source="-O-D5mFjyxaTH4whwX1T-3" target="-O-D5mFjyxaTH4whwX1T-10" edge="1">
          <mxGeometry relative="1" as="geometry" />
        </mxCell>
        <mxCell id="-O-D5mFjyxaTH4whwX1T-23" style="edgeStyle=none;rounded=0;orthogonalLoop=1;jettySize=auto;html=1;exitX=1;exitY=0.5;exitDx=0;exitDy=0;entryX=0;entryY=0.5;entryDx=0;entryDy=0;fontColor=#1D3557;strokeColor=#457B9D;fillColor=#A8DADC;" parent="1" source="-O-D5mFjyxaTH4whwX1T-3" target="-O-D5mFjyxaTH4whwX1T-11" edge="1">
          <mxGeometry relative="1" as="geometry" />
        </mxCell>
        <mxCell id="-O-D5mFjyxaTH4whwX1T-28" style="edgeStyle=none;rounded=0;orthogonalLoop=1;jettySize=auto;html=1;entryX=0;entryY=0.5;entryDx=0;entryDy=0;fontColor=#1D3557;strokeColor=#457B9D;fillColor=#A8DADC;exitX=1;exitY=0.25;exitDx=0;exitDy=0;" parent="1" source="-O-D5mFjyxaTH4whwX1T-3" target="-O-D5mFjyxaTH4whwX1T-26" edge="1">
          <mxGeometry relative="1" as="geometry" />
        </mxCell>
        <mxCell id="-O-D5mFjyxaTH4whwX1T-3" value="点击取消订单" style="rounded=0;whiteSpace=wrap;html=1;strokeColor=#457B9D;fillColor=#A8DADC;fontColor=#1D3557;" parent="1" vertex="1">
          <mxGeometry x="-220" y="-572" width="88" height="33" as="geometry" />
        </mxCell>
        <mxCell id="-O-D5mFjyxaTH4whwX1T-5" value="点击更多车型" style="rounded=0;whiteSpace=wrap;html=1;strokeColor=#457B9D;fillColor=#A8DADC;fontColor=#1D3557;" parent="1" vertex="1">
          <mxGeometry x="-220" y="-517" width="88" height="33" as="geometry" />
        </mxCell>
        <mxCell id="-O-D5mFjyxaTH4whwX1T-8" value="" style="edgeStyle=orthogonalEdgeStyle;rounded=0;orthogonalLoop=1;jettySize=auto;html=1;labelBackgroundColor=#F1FAEE;strokeColor=#457B9D;fontColor=#1D3557;" parent="1" source="-O-D5mFjyxaTH4whwX1T-6" edge="1">
          <mxGeometry relative="1" as="geometry">
            <mxPoint x="-68" y="-445.5" as="targetPoint" />
          </mxGeometry>
        </mxCell>
        <mxCell id="-O-D5mFjyxaTH4whwX1T-6" value="勾选更多运力" style="rounded=0;whiteSpace=wrap;html=1;strokeColor=#457B9D;fillColor=#A8DADC;fontColor=#1D3557;" parent="1" vertex="1">
          <mxGeometry x="-220" y="-462" width="88" height="33" as="geometry" />
        </mxCell>
        <mxCell id="-O-D5mFjyxaTH4whwX1T-9" value="新增呼叫" style="rounded=0;whiteSpace=wrap;html=1;strokeColor=#457B9D;fillColor=#A8DADC;fontColor=#1D3557;" parent="1" vertex="1">
          <mxGeometry x="-66" y="-462" width="88" height="33" as="geometry" />
        </mxCell>
        <mxCell id="-O-D5mFjyxaTH4whwX1T-10" value="我再等等" style="rounded=0;whiteSpace=wrap;html=1;strokeColor=#457B9D;fillColor=#A8DADC;fontColor=#1D3557;" parent="1" vertex="1">
          <mxGeometry x="-55" y="-605" width="88" height="33" as="geometry" />
        </mxCell>
        <mxCell id="-O-D5mFjyxaTH4whwX1T-11" value="狠心取消" style="rounded=0;whiteSpace=wrap;html=1;strokeColor=#457B9D;fillColor=#A8DADC;fontColor=#1D3557;" parent="1" vertex="1">
          <mxGeometry x="-55" y="-550" width="88" height="33" as="geometry" />
        </mxCell>
        <mxCell id="-O-D5mFjyxaTH4whwX1T-12" value="跳转103" style="rounded=0;whiteSpace=wrap;html=1;strokeColor=#457B9D;fillColor=#A8DADC;fontColor=#1D3557;" parent="1" vertex="1">
          <mxGeometry x="176" y="-539" width="88" height="33" as="geometry" />
        </mxCell>
        <mxCell id="-O-D5mFjyxaTH4whwX1T-15" value="" style="rounded=1;whiteSpace=wrap;html=1;strokeColor=#457B9D;fillColor=none;dashed=1;fontColor=#1D3557;" parent="1" vertex="1">
          <mxGeometry x="-236" y="-473" width="280" height="55" as="geometry" />
        </mxCell>
        <mxCell id="-O-D5mFjyxaTH4whwX1T-25" style="edgeStyle=none;rounded=0;orthogonalLoop=1;jettySize=auto;html=1;fontColor=#1D3557;strokeColor=#457B9D;fillColor=#A8DADC;" parent="1" source="-O-D5mFjyxaTH4whwX1T-24" target="-O-D5mFjyxaTH4whwX1T-12" edge="1">
          <mxGeometry relative="1" as="geometry" />
        </mxCell>
        <mxCell id="-O-D5mFjyxaTH4whwX1T-26" value="返回" style="rounded=0;whiteSpace=wrap;html=1;strokeColor=#82b366;fillStyle=auto;fillColor=#d5e8d4;" parent="1" vertex="1">
          <mxGeometry x="-55" y="-660" width="88" height="33" as="geometry" />
        </mxCell>
        <mxCell id="-O-D5mFjyxaTH4whwX1T-29" value="展示规划页" style="rounded=0;whiteSpace=wrap;html=1;strokeColor=#457B9D;fillColor=#A8DADC;fontColor=#1D3557;" parent="1" vertex="1">
          <mxGeometry x="-486.5" y="-77" width="88" height="33" as="geometry" />
        </mxCell>
        <mxCell id="-O-D5mFjyxaTH4whwX1T-32" value="点击终点" style="rounded=0;whiteSpace=wrap;html=1;strokeColor=#457B9D;fillColor=#A8DADC;fontColor=#1D3557;" parent="1" vertex="1">
          <mxGeometry x="-324" y="286" width="88" height="33" as="geometry" />
        </mxCell>
        <mxCell id="-O-D5mFjyxaTH4whwX1T-33" value="点击起点" style="rounded=0;whiteSpace=wrap;html=1;strokeColor=#457B9D;fillColor=#A8DADC;fontColor=#1D3557;" parent="1" vertex="1">
          <mxGeometry x="-324" y="400" width="88" height="33" as="geometry" />
        </mxCell>
        <mxCell id="-O-D5mFjyxaTH4whwX1T-34" value="制度页" style="rounded=0;whiteSpace=wrap;html=1;strokeColor=#457B9D;fillColor=#A8DADC;fontColor=#1D3557;" parent="1" vertex="1">
          <mxGeometry x="-484" y="836" width="88" height="33" as="geometry" />
        </mxCell>
        <mxCell id="-O-D5mFjyxaTH4whwX1T-35" value="点击个人中心" style="rounded=0;whiteSpace=wrap;html=1;strokeColor=#457B9D;fillColor=#A8DADC;fontColor=#1D3557;" parent="1" vertex="1">
          <mxGeometry x="-264" y="869" width="88" height="33" as="geometry" />
        </mxCell>
        <mxCell id="-O-D5mFjyxaTH4whwX1T-36" value="套卡数据展示正常" style="rounded=0;whiteSpace=wrap;html=1;strokeColor=#457B9D;fillColor=#A8DADC;fontColor=#1D3557;" parent="1" vertex="1">
          <mxGeometry x="-264" y="726" width="88" height="33" as="geometry" />
        </mxCell>
        <mxCell id="-O-D5mFjyxaTH4whwX1T-37" value="制度数据展示正常" style="rounded=0;whiteSpace=wrap;html=1;strokeColor=#457B9D;fillColor=#A8DADC;fontColor=#1D3557;" parent="1" vertex="1">
          <mxGeometry x="-264" y="792" width="88" height="33" as="geometry" />
        </mxCell>
        <mxCell id="-O-D5mFjyxaTH4whwX1T-38" value="点击制度跳转起终点" style="rounded=0;whiteSpace=wrap;html=1;strokeColor=#457B9D;fillColor=#A8DADC;fontColor=#1D3557;" parent="1" vertex="1">
          <mxGeometry x="66" y="825" width="88" height="33" as="geometry" />
        </mxCell>
        <mxCell id="-O-D5mFjyxaTH4whwX1T-39" value="点击申请单" style="rounded=0;whiteSpace=wrap;html=1;strokeColor=#457B9D;fillColor=#A8DADC;fontColor=#1D3557;" parent="1" vertex="1">
          <mxGeometry x="-264" y="946" width="88" height="33" as="geometry" />
        </mxCell>
        <mxCell id="-O-D5mFjyxaTH4whwX1T-40" value="点击返回" style="rounded=0;whiteSpace=wrap;html=1;strokeColor=#457B9D;fillColor=#A8DADC;fontColor=#1D3557;" parent="1" vertex="1">
          <mxGeometry x="-88" y="869" width="88" height="33" as="geometry" />
        </mxCell>
        <mxCell id="-O-D5mFjyxaTH4whwX1T-42" style="edgeStyle=none;rounded=0;orthogonalLoop=1;jettySize=auto;html=1;fontColor=#1D3557;strokeColor=#457B9D;fillColor=#A8DADC;" parent="1" source="-O-D5mFjyxaTH4whwX1T-41" target="-O-D5mFjyxaTH4whwX1T-38" edge="1">
          <mxGeometry relative="1" as="geometry" />
        </mxCell>
        <mxCell id="-O-D5mFjyxaTH4whwX1T-41" value="点击完成" style="rounded=0;whiteSpace=wrap;html=1;strokeColor=#457B9D;fillColor=#A8DADC;fontColor=#1D3557;" parent="1" vertex="1">
          <mxGeometry x="-88" y="946" width="88" height="33" as="geometry" />
        </mxCell>
        <mxCell id="-O-D5mFjyxaTH4whwX1T-43" value="点击list" style="rounded=0;whiteSpace=wrap;html=1;strokeColor=#457B9D;fillColor=#A8DADC;fontColor=#1D3557;" parent="1" vertex="1">
          <mxGeometry x="33" y="286" width="88" height="33" as="geometry" />
        </mxCell>
        <mxCell id="-O-D5mFjyxaTH4whwX1T-44" value="历史记录正常" style="rounded=0;whiteSpace=wrap;html=1;strokeColor=#457B9D;fillColor=#A8DADC;fontColor=#1D3557;" parent="1" vertex="1">
          <mxGeometry x="-126" y="253" width="88" height="33" as="geometry" />
        </mxCell>
        <mxCell id="-O-D5mFjyxaTH4whwX1T-45" value="输入搜素内容" style="rounded=0;whiteSpace=wrap;html=1;strokeColor=#457B9D;fillColor=#A8DADC;fontColor=#1D3557;" parent="1" vertex="1">
          <mxGeometry x="-126" y="334" width="88" height="33" as="geometry" />
        </mxCell>
        <mxCell id="-O-D5mFjyxaTH4whwX1T-46" value="跳转至起终点" style="rounded=0;whiteSpace=wrap;html=1;strokeColor=#457B9D;fillColor=#A8DADC;fontColor=#1D3557;" parent="1" vertex="1">
          <mxGeometry x="33" y="400" width="88" height="33" as="geometry" />
        </mxCell>
        <mxCell id="-O-D5mFjyxaTH4whwX1T-47" value="地图选点" style="rounded=0;whiteSpace=wrap;html=1;strokeColor=#457B9D;fillColor=#A8DADC;fontColor=#1D3557;" parent="1" vertex="1">
          <mxGeometry x="-126" y="528" width="88" height="33" as="geometry" />
        </mxCell>
        <mxCell id="-O-D5mFjyxaTH4whwX1T-48" value="我的位置" style="rounded=0;whiteSpace=wrap;html=1;strokeColor=#457B9D;fillColor=#A8DADC;fontColor=#1D3557;" parent="1" vertex="1">
          <mxGeometry x="-126" y="462" width="88" height="33" as="geometry" />
        </mxCell>
        <mxCell id="-O-D5mFjyxaTH4whwX1T-49" value="地图选点" style="rounded=0;whiteSpace=wrap;html=1;strokeColor=#457B9D;fillColor=#A8DADC;fontColor=#1D3557;" parent="1" vertex="1">
          <mxGeometry x="-126" y="400" width="88" height="33" as="geometry" />
        </mxCell>
        <mxCell id="-O-D5mFjyxaTH4whwX1T-50" value="跳转至publish" style="rounded=0;whiteSpace=wrap;html=1;strokeColor=#457B9D;fillColor=#A8DADC;fontColor=#1D3557;" parent="1" vertex="1">
          <mxGeometry x="259" y="385" width="88" height="33" as="geometry" />
        </mxCell>
        <mxCell id="-O-D5mFjyxaTH4whwX1T-51" value="起终点" style="rounded=0;whiteSpace=wrap;html=1;strokeColor=#457B9D;fillColor=#A8DADC;fontColor=#1D3557;dashed=1;fillStyle=auto;" parent="1" vertex="1">
          <mxGeometry x="-506" y="319" width="88" height="33" as="geometry" />
        </mxCell>
        <mxCell id="-O-D5mFjyxaTH4whwX1T-54" value="点击下单" style="rounded=0;whiteSpace=wrap;html=1;strokeColor=#457B9D;fillColor=#A8DADC;fontColor=#1D3557;" parent="1" vertex="1">
          <mxGeometry x="222.5" y="-121" width="88" height="33" as="geometry" />
        </mxCell>
        <mxCell id="-O-D5mFjyxaTH4whwX1T-55" value="勾选运力" style="rounded=0;whiteSpace=wrap;html=1;strokeColor=#457B9D;fillColor=#A8DADC;fontColor=#1D3557;" parent="1" vertex="1">
          <mxGeometry x="-123.5" y="-154" width="88" height="33" as="geometry" />
        </mxCell>
        <mxCell id="-O-D5mFjyxaTH4whwX1T-56" value="返回运力规划页" style="rounded=0;whiteSpace=wrap;html=1;strokeColor=#457B9D;fillColor=#A8DADC;fontColor=#1D3557;" parent="1" vertex="1">
          <mxGeometry x="41.5" y="-55" width="88" height="33" as="geometry" />
        </mxCell>
        <mxCell id="-O-D5mFjyxaTH4whwX1T-57" value="进入单搜页" style="rounded=0;whiteSpace=wrap;html=1;strokeColor=#457B9D;fillColor=#A8DADC;fontColor=#1D3557;" parent="1" vertex="1">
          <mxGeometry x="-123.5" y="-55" width="88" height="33" as="geometry" />
        </mxCell>
        <mxCell id="-O-D5mFjyxaTH4whwX1T-58" value="点击地图终点" style="rounded=0;whiteSpace=wrap;html=1;strokeColor=#457B9D;fillColor=#A8DADC;fontColor=#1D3557;" parent="1" vertex="1">
          <mxGeometry x="-288.5" y="-11" width="88" height="33" as="geometry" />
        </mxCell>
        <mxCell id="-O-D5mFjyxaTH4whwX1T-59" value="点击地图起点" style="rounded=0;whiteSpace=wrap;html=1;strokeColor=#457B9D;fillColor=#A8DADC;fontColor=#1D3557;" parent="1" vertex="1">
          <mxGeometry x="-288.5" y="-110" width="88" height="33" as="geometry" />
        </mxCell>
        <mxCell id="-O-D5mFjyxaTH4whwX1T-60" value="运力接口正常的" style="rounded=0;whiteSpace=wrap;html=1;strokeColor=#457B9D;fillColor=#A8DADC;fontColor=#1D3557;" parent="1" vertex="1">
          <mxGeometry x="-288.5" y="-187" width="88" height="33" as="geometry" />
        </mxCell>
      </root>
    </mxGraphModel>
  </diagram>
</mxfile>
